{
 "accessors": [
  {
   "componentType": 5126,
   "type": "VEC3",
   "count": 7673,
   "max": [
    0.6225265860557556,
    0.5387629270553589,
    0.5080000162124634
   ],
   "min": [
    -0.6200000047683716,
    -0.5428000092506409,
    -0.5065186619758606
   ],
   "bufferView": 0
  },
  {
   "componentType": 5126,
   "type": "VEC3",
   "count": 7673,
   "bufferView": 1
  },
  {
   "componentType": 5123,
   "type": "SCALAR",
   "count": 552,
   "bufferView": 2
  },
  {
   "componentType": 5123,
   "type": "SCALAR",
   "count": 1152,
   "bufferView": 3
  },
  {
   "componentType": 5123,
   "type": "SCALAR",
   "count": 17460,
   "bufferView": 4
  },
  {
   "componentType": 5123,
   "type": "SCALAR",
   "count": 300,
   "bufferView": 5
  }
 ],
 "asset": {
  "version": "2.0",
  "generator": "clara.io"
 },
 "bufferViews": [
  {
   "buffer": 0,
   "byteOffset": 0,
   "byteLength": 92076,
   "target": 34962,
   "byteStride": 12
  },
  {
   "buffer": 0,
   "byteOffset": 92076,
   "byteLength": 92076,
   "target": 34962,
   "byteStride": 12
  },
  {
   "buffer": 0,
   "byteOffset": 184152,
   "byteLength": 1104,
   "target": 34963
  },
  {
   "buffer": 0,
   "byteOffset": 185256,
   "byteLength": 2304,
   "target": 34963
  },
  {
   "buffer": 0,
   "byteOffset": 187560,
   "byteLength": 34920,
   "target": 34963
  },
  {
   "buffer": 0,
   "byteOffset": 222480,
   "byteLength": 600,
   "target": 34963
  }
 ],
 "buffers": [
  {
   "byteLength": 223080,
   "uri": "data:application/octet-stream;base64,"
  }
 ],
 "materials": [
  {
   "name": "mat_body",
   "pbrMetallicRoughness": {
    "baseColorFactor": [
     0.4392156862745098,
     0.4392156862745098,
     0.4392156862745098,
     1
    ],
    "roughnessFactor": 0.1961,
    "metallicFactor": 0
   }
  },
  {
   "name": "mat_inner",
   "pbrMetallicRoughness": {
    "baseColorFactor": [
     0.6980392156862745,
     0.6980392156862745,
     0.6666666666666666,
     1
    ],
    "roughnessFactor": 0.1961,
    "metallicFactor": 0
   }
  },
  {
   "name": "mat_glow",
   "pbrMetallicRoughness": {
    "baseColorFactor": [
     0.9411764705882353,
     0.43137254901960786,
     0.6666666666666666,
     1
    ],
    "roughnessFactor": 0.1961,
    "metallicFactor": 0
   }
  }
 ],
 "meshes": [
  {
   "primitives": [
    {
     "indices": 2,
     "material": 2,
     "mode": 4,
     "attributes": {
      "POSITION": 0,
      "NORMAL": 1
     }
    },
    {
     "indices": 3,
     "material": 0,
     "mode": 4,
     "attributes": {
      "POSITION": 0,
      "NORMAL": 1
     }
    },
    {
     "indices": 4,
     "material": 1,
     "mode": 4,
     "attributes": {
      "POSITION": 0,
      "NORMAL": 1
     }
    },
    {
     "indices": 5,
     "material": 2,
     "mode": 4,
     "attributes": {
      "POSITION": 0,
      "NORMAL": 1
     }
    }
   ]
  }
 ],
 "nodes": [
  {
   "name": "Tetrahedron",
   "mesh": 0
  }
 ],
 "scene": 0,
 "scenes": [
  {
   "nodes": [
    0
   ]
  }
 ]
}