{
 "accessors": [
  {
   "componentType": 5126,
   "type": "VEC3",
   "count": 6624,
   "max": [
    0.5002204775810242,
    0.49408718943595886,
    0.4985988438129425
   ],
   "min": [
    -0.5000209808349609,
    -0.49879124760627747,
    -0.4945015013217926
   ],
   "bufferView": 2
  },
  {
   "componentType": 5126,
   "type": "VEC3",
   "count": 6624,
   "bufferView": 3
  },
  {
   "componentType": 5126,
   "type": "VEC2",
   "count": 6624,
   "bufferView": 4
  },
  {
   "componentType": 5123,
   "type": "SCALAR",
   "count": 9924,
   "bufferView": 5
  }
 ],
 "asset": {
  "version": "2.0",
  "generator": "clara.io"
 },
 "bufferViews": [
  {
   "buffer": 0,
   "byteOffset": 0,
   "byteLength": 39982
  },
  {
   "buffer": 0,
   "byteOffset": 39984,
   "byteLength": 20305
  },
  {
   "buffer": 0,
   "byteOffset": 60292,
   "byteLength": 79488,
   "target": 34962,
   "byteStride": 12
  },
  {
   "buffer": 0,
   "byteOffset": 139780,
   "byteLength": 79488,
   "target": 34962,
   "byteStride": 12
  },
  {
   "buffer": 0,
   "byteOffset": 219268,
   "byteLength": 52992,
   "target": 34962,
   "byteStride": 8
  },
  {
   "buffer": 0,
   "byteOffset": 272260,
   "byteLength": 19848,
   "target": 34963
  }
 ],
 "buffers": [
  {
   "byteLength": 292108,
   "uri": "data:application/octet-stream;base64,"
  }
 ],
 "images": [
  {
   "name": "companion_cube.jpg",
   "bufferView": 0,
   "mimeType": "image/jpeg"
  },
  {
   "name": "AO_ROUGH_METAL_100.jpg",
   "bufferView": 1,
   "mimeType": "image/jpeg"
  }
 ],
 "materials": [
  {
   "name": "Box002Mat",
   "pbrMetallicRoughness": {
    "baseColorFactor": [
     0.8,
     0.8,
     0.8,
     1
    ],
    "baseColorTexture": {
     "index": 0,
     "texCoord": 0
    },
    "roughnessFactor": 0.3015,
    "metallicFactor": 0,
    "metallicRoughnessTexture": {
     "index": 1
    }
   }
  }
 ],
 "meshes": [
  {
   "primitives": [
    {
     "indices": 3,
     "material": 0,
     "mode": 4,
     "attributes": {
      "POSITION": 0,
      "NORMAL": 1,
      "TEXCOORD_0": 2
     }
    }
   ]
  }
 ],
 "nodes": [
  {
   "name": "Box002",
   "mesh": 0
  }
 ],
 "samplers": [
  {
   "magFilter": 9729,
   "minFilter": 9987,
   "wrapS": 10497,
   "wrapT": 10497
  }
 ],
 "scene": 0,
 "scenes": [
  {
   "nodes": [
    0
   ]
  }
 ],
 "textures": [
  {
   "sampler": 0,
   "source": 0
  },
  {
   "sampler": 0,
   "source": 1
  }
 ]
}